<?xml version="1.0" encoding="UTF-8"?>
<svg width="20px" height="20px" viewBox="0 0 20 20" version="1.1" xmlns="http://www.w3.org/2000/svg" xmlns:xlink="http://www.w3.org/1999/xlink">
    <!-- Generator: Sketch 48.2 (47327) - http://www.bohemiancoding.com/sketch -->
    <title>Fill 6</title>
    <desc>Created with Sketch.</desc>
    <defs></defs>
    <g id="Home" stroke="none" stroke-width="1" fill="none" fill-rule="evenodd" transform="translate(-695.000000, -3386.000000)">
        <g id="Footer" transform="translate(0.000000, 3224.000000)" fill="#FFFFFF">
            <g id="Page-1" transform="translate(583.000000, 161.000000)">
                <path d="M128.8779,5.34354783 C128.8869,4.40546087 128.1539,3.62389565 127.2559,3.61554783 C126.3559,3.60615652 125.6079,4.36998261 125.5989,5.30702609 C125.5899,6.24615652 126.3209,7.02563478 127.2199,7.03711304 C128.1169,7.04650435 128.8689,6.27850435 128.8779,5.34354783 M121.9029,16.0308522 C124.6049,16.0318957 126.8249,13.7247652 126.8289,10.9136348 C126.8329,8.07850435 124.6259,5.75572174 121.9249,5.7525913 C119.2049,5.75050435 116.9809,8.05137391 116.9789,10.8698087 C116.9779,13.7174609 119.1849,16.0308522 121.9029,16.0308522 M112.4669,10.8708522 L112.4669,6.67502609 C112.4669,3.9525913 114.2209,1.6965913 116.7779,1.14876522 C117.0969,1.08093913 117.4289,1.05067826 117.7549,1.04963478 C120.5239,1.04128696 123.2939,1.04233043 126.0639,1.04546087 C128.6129,1.0485913 130.8659,3.05833043 131.2599,5.68685217 C131.3099,6.0165913 131.3369,6.3525913 131.3369,6.68546087 C131.3439,9.5258087 131.3419,12.365113 131.3409,15.2054609 C131.3399,17.4760696 129.9569,19.5588522 127.9209,20.3665043 C127.2949,20.6158957 126.6499,20.7390261 125.9819,20.7390261 C123.2669,20.7390261 120.5519,20.7567652 117.8369,20.7338087 C115.7699,20.7160696 114.2029,19.7425043 113.1509,17.8882435 C112.6829,17.0618087 112.4699,16.1539826 112.4679,15.1950261 C112.4649,13.7539826 112.4669,12.3118957 112.4669,10.8708522" id="Fill-6"></path>
            </g>
        </g>
    </g>
</svg>