<?xml version="1.0" encoding="UTF-8"?>
<svg width="31px" height="20px" viewBox="0 0 31 20" version="1.1" xmlns="http://www.w3.org/2000/svg" xmlns:xlink="http://www.w3.org/1999/xlink">
    <!-- Generator: Sketch 48.2 (47327) - http://www.bohemiancoding.com/sketch -->
    <title>Fill 16</title>
    <desc>Created with Sketch.</desc>
    <defs></defs>
    <g id="Home" stroke="none" stroke-width="1" fill="none" fill-rule="evenodd" transform="translate(-826.000000, -3388.000000)">
        <g id="Footer" transform="translate(0.000000, 3224.000000)" fill="#FFFFFF">
            <g id="Page-1" transform="translate(583.000000, 161.000000)">
                <path d="M265.4433,7.04587826 C265.4173,7.02605217 265.4003,7.01248696 265.3813,6.99892174 C264.6093,6.43022609 263.7693,6.00135652 262.8753,5.68935652 C261.9173,5.3544 260.9333,5.1624 259.9263,5.0904 C259.6253,5.06848696 259.3213,5.04970435 259.0193,5.05283478 C258.6093,5.05805217 258.1983,5.08205217 257.7883,5.10292174 C257.6063,5.11231304 257.4243,5.13213913 257.2443,5.15405217 C256.6553,5.22396522 256.0753,5.34187826 255.5043,5.50570435 C254.4453,5.80935652 253.4523,6.26326957 252.5433,6.90918261 C252.4823,6.95196522 252.4223,6.9957913 252.3543,7.04587826 C254.1183,7.29631304 255.6193,8.06953043 256.8423,9.40205217 C258.0663,10.7345739 258.7413,12.3342261 258.9113,14.1717913 C259.0773,12.3394435 259.7493,10.7439652 260.9663,9.41353043 C262.1853,8.07996522 263.6833,7.30361739 265.4433,7.04587826 M266.0713,20.6653565 C268.0243,20.6653565 269.4773,19.9495304 270.4813,18.8225739 C271.5743,17.596487 272.0893,16.1366609 272.0033,14.4639652 C271.9273,12.9801391 271.3753,11.7018783 270.3653,10.6573565 C269.1653,9.41666087 267.7053,8.84796522 266.0193,8.95648696 C264.6193,9.04622609 263.4143,9.62118261 262.4273,10.6573565 C261.2333,11.9095304 260.6853,13.4382261 260.7883,15.1954435 C260.8743,16.6510957 261.4293,17.9116174 262.4223,18.9436174 C263.5193,20.0830957 264.8543,20.640313 266.0713,20.6653565 M251.1773,8.93874783 C249.8953,8.96066087 248.5563,9.51787826 247.4643,10.6625739 C246.3073,11.8740522 245.7573,13.3547478 245.8233,15.0597913 C245.8813,16.5707478 246.4363,17.880313 247.4673,18.9488348 C248.6233,20.1457043 250.0323,20.7196174 251.6563,20.6590957 C253.1183,20.6048348 254.3843,20.0257043 255.4123,18.9384 C256.6083,17.6737043 257.1513,16.1387478 257.0403,14.3648348 C256.8563,11.4264 254.4773,8.94187826 251.1773,8.93874783 M251.7903,22.6166609 L251.0793,22.6166609 C251.0623,22.612487 251.0463,22.6051826 251.0283,22.6051826 C250.6563,22.584313 250.2883,22.5352696 249.9233,22.4570087 C248.8173,22.2159652 247.8103,21.744313 246.9123,21.0274435 C245.6243,19.9996174 244.7393,18.6754435 244.2643,17.0559652 C244.0913,16.4664 243.9883,15.8632696 243.9583,15.2465739 C243.9583,15.2309217 243.9503,15.2152696 243.9463,15.1996174 L243.9463,14.4065739 C243.9553,14.3220522 243.9623,14.2375304 243.9723,14.1530087 C244.0013,13.9098783 244.0213,13.6657043 244.0633,13.4246609 C244.3133,11.9857043 244.9023,10.7178783 245.8303,9.62118261 C245.9323,9.50222609 246.0383,9.3864 246.1473,9.26431304 C245.4173,8.50883478 244.6883,7.7544 243.9473,6.98848696 L244.0383,6.98848696 C245.4783,6.98848696 246.9183,6.98848696 248.3593,6.98744348 C248.3913,6.98744348 248.4313,6.97909565 248.4553,6.95822609 C249.1463,6.38118261 249.8843,5.87822609 250.6603,5.4357913 C252.2763,4.51231304 253.9853,3.85074783 255.7873,3.45109565 C256.3323,3.33005217 256.8813,3.23822609 257.4353,3.18083478 C257.6953,3.15370435 257.9573,3.14326957 258.2183,3.12344348 C258.2993,3.11718261 258.3813,3.10674783 258.4623,3.0984 L259.3853,3.0984 C259.3893,3.10153043 259.3943,3.10883478 259.3993,3.10883478 C259.5283,3.11822609 259.6573,3.12761739 259.7873,3.1370087 C259.9793,3.15161739 260.1723,3.15996522 260.3633,3.1797913 C260.9833,3.24553043 261.5973,3.35092174 262.2053,3.49283478 C263.5523,3.80587826 264.8513,4.26813913 266.1023,4.87648696 C267.2613,5.4410087 268.3573,6.11405217 269.3603,6.94674783 C269.3893,6.97074783 269.4333,6.9864 269.4713,6.9864 C270.9093,6.98848696 272.3473,6.98848696 273.7853,6.98848696 L273.8693,6.98848696 C273.1273,7.75648696 272.3983,8.51092174 271.6603,9.27474783 C271.6943,9.30605217 271.7253,9.3290087 271.7503,9.35718261 C273.0743,10.8024 273.7873,12.5210087 273.8733,14.5192696 C273.8903,14.8990957 273.8783,15.2810087 273.8363,15.6597913 C273.7813,16.156487 273.6933,16.6458783 273.5433,17.1196174 C272.8133,19.4309217 271.3743,21.0660522 269.2333,22.0260522 C268.5613,22.3276174 267.8543,22.492487 267.1293,22.5759652 C266.9603,22.5957913 266.7893,22.5968348 266.6183,22.6062261 C266.4603,22.6062261 266.3013,22.6062261 266.1433,22.6051826 C264.3493,22.5342261 262.7813,21.8705739 261.4183,20.6486609 C261.4513,20.7029217 261.4123,20.7196174 261.3823,20.7425739 C260.7313,21.2371826 260.0793,21.7317913 259.4273,22.2253565 C259.2623,22.3516174 259.0953,22.4778783 258.9283,22.6041391 C258.0813,21.9540522 257.2363,21.3070957 256.4013,20.6653565 C256.1953,20.832313 256.0033,20.9992696 255.8013,21.1505739 C254.6643,21.9999652 253.3983,22.4810087 252.0043,22.5926609 C251.9323,22.5989217 251.8613,22.6093565 251.7903,22.6166609" id="Fill-16"></path>
            </g>
        </g>
    </g>
</svg>